<?xml version="1.0" standalone="no"?><!DOCTYPE svg PUBLIC "-//W3C//DTD SVG 1.1//EN" "http://www.w3.org/Graphics/SVG/1.1/DTD/svg11.dtd"><svg t="1610092527636" class="icon" viewBox="0 0 1024 1024" version="1.1" xmlns="http://www.w3.org/2000/svg" p-id="5955" xmlns:xlink="http://www.w3.org/1999/xlink" width="64" height="64"><defs><style type="text/css"></style></defs><path d="M934.4 256l-108.8-108.8-108.8-112H198.4c-41.6 0-73.6 32-73.6 73.6v812.8c0 41.6 32 73.6 73.6 73.6H864c41.6 0 73.6-32 73.6-73.6L934.4 256z m-307.2 531.2L576 700.8c-12.8-22.4-25.6-41.6-35.2-67.2-12.8 22.4-22.4 44.8-35.2 67.2l-48 86.4h-92.8l128-204.8-124.8-195.2h92.8l48 80c12.8 22.4 25.6 41.6 35.2 64h3.2c12.8-22.4 22.4-44.8 35.2-64l44.8-80h89.6l-124.8 192 128 208h-92.8z" fill="#00D1A5" p-id="5956"></path><path d="M713.6 35.2l224 220.8h-147.2c-41.6 0-73.6-32-73.6-73.6V35.2z" fill="#89F4DA" p-id="5957"></path></svg>