<?xml version="1.0" standalone="no"?><!DOCTYPE svg PUBLIC "-//W3C//DTD SVG 1.1//EN" "http://www.w3.org/Graphics/SVG/1.1/DTD/svg11.dtd"><svg t="1610092532966" class="icon" viewBox="0 0 1024 1024" version="1.1" xmlns="http://www.w3.org/2000/svg" p-id="6238" xmlns:xlink="http://www.w3.org/1999/xlink" width="64" height="64"><defs><style type="text/css"></style></defs><path d="M777.960727 0v192.015515H977.454545v768C977.454545 995.35903 947.665455 1024 910.956606 1024H113.043394C76.303515 1024 46.545455 995.35903 46.545455 959.984485V64.015515C46.545455 28.64097 76.334545 0 113.043394 0H777.929697z m-137.27806 403.393939c-70.935273 0-90.608485 233.347879-153.103515 233.347879-62.557091 0-106.961455-138.581333-152.886304-138.581333-45.924848 0-95.852606 101.655273-121.91806 169.549576-26.003394 67.832242-3.009939 103.082667 35.157333 103.082666 38.136242 0 342.574545 4.964848 438.458182 4.964849 95.852606 0 117.604848-25.56897 98.614303-105.937455-18.990545-80.430545-73.386667-266.426182-144.290909-266.426182zM372.363636 248.242424a77.575758 77.575758 0 1 0 0 155.151515 77.575758 77.575758 0 0 0 0-155.151515z" fill="#FFB737" p-id="6239"></path><path d="M977.454545 192.015515h-199.493818V0" fill="#FFB737" opacity=".5" p-id="6240"></path></svg>