<?xml version="1.0" standalone="no"?><!DOCTYPE svg PUBLIC "-//W3C//DTD SVG 1.1//EN" "http://www.w3.org/Graphics/SVG/1.1/DTD/svg11.dtd"><svg t="1610092519740" class="icon" viewBox="0 0 1024 1024" version="1.1" xmlns="http://www.w3.org/2000/svg" p-id="5671" xmlns:xlink="http://www.w3.org/1999/xlink" width="64" height="64"><defs><style type="text/css"></style></defs><path d="M953.6 204.8v748.8c0 38.4-32 70.4-70.4 70.4H134.4c-38.4 0-70.4-32-70.4-70.4V70.4C70.4 32 102.4 0 134.4 0h614.4l204.8 204.8z" fill="#F5696C" p-id="5672"></path><path d="M953.6 204.8h-134.4c-38.4 0-70.4-32-70.4-70.4V0l204.8 204.8z" fill="#FFB5A6" p-id="5673"></path><path d="M704 595.2c-12.8 0-25.6 0-38.4 6.4 12.8 12.8 25.6 19.2 44.8 19.2 12.8 0 19.2 0 25.6-6.4 0-6.4-6.4-19.2-32-19.2M518.4 524.8l-38.4 96c32-12.8 57.6-19.2 89.6-25.6-19.2-25.6-38.4-44.8-51.2-70.4m-6.4-192h-12.8c-6.4 25.6 0 51.2 12.8 70.4 12.8-19.2 12.8-44.8 0-70.4m-179.2 403.2c25.6-12.8 38.4-25.6 44.8-44.8-19.2 12.8-38.4 25.6-44.8 44.8m358.4-96c-38.4 0-70.4-19.2-96-38.4-51.2 12.8-108.8 32-160 51.2-38.4 70.4-76.8 108.8-115.2 108.8-6.4 0-12.8 0-19.2-6.4-12.8-6.4-25.6-19.2-19.2-38.4 0-12.8 0-44.8 128-102.4 32-44.8 51.2-102.4 70.4-160-12.8-32-51.2-108.8-25.6-147.2 6.4-12.8 25.6-25.6 38.4-19.2 12.8 0 25.6 6.4 32 19.2 25.6 19.2 19.2 70.4 0 140.8 19.2 44.8 51.2 76.8 83.2 108.8 25.6-6.4 57.6-6.4 83.2-6.4 64 0 70.4 32 70.4 44.8 0 44.8-44.8 44.8-70.4 44.8" fill="#FFFFFF" p-id="5674"></path></svg>