<?xml version="1.0" standalone="no"?><!DOCTYPE svg PUBLIC "-//W3C//DTD SVG 1.1//EN" "http://www.w3.org/Graphics/SVG/1.1/DTD/svg11.dtd"><svg t="1610092569891" class="icon" viewBox="0 0 1024 1024" version="1.1" xmlns="http://www.w3.org/2000/svg" p-id="7915" xmlns:xlink="http://www.w3.org/1999/xlink" width="64" height="64"><defs><style type="text/css"></style></defs><path d="M153.7 64.1c-17.9 0-32.6 14.7-32.6 32.6v830.7c0 17.9 14.7 32.6 32.6 32.6h716.7c17.9 0 32.6-14.7 32.6-32.6V259.5L707.5 64.1H153.7z" fill="#EBC81E" p-id="7916"></path><path d="M707.5 64.1V227c0 17.9 14.7 32.6 32.6 32.6H903L707.5 64.1z" fill="#FFF3AE" p-id="7917"></path><path d="M532.8 636.9c0.4-21.4 1.9-36.9 4.5-46.4s6.5-17.9 11.9-25.3c5.4-7.3 16.7-18.7 34.2-34.2 26-23 43.4-42.5 52.3-58.6 8.9-16.1 13.4-33.6 13.4-52.6 0-32.9-12.7-60.9-38.1-84.1-25.4-23.2-59.4-34.8-102-34.8-40.2 0-72.6 10.8-97.1 32.4-24.4 21.6-39.2 52.7-44.1 93.3l55 6.5c4.8-30.3 14.8-52.6 30.1-66.9 15.3-14.3 34.3-21.4 57.1-21.4 23.5 0 43.5 7.9 59.8 23.6 16.2 15.7 24.4 34 24.4 54.9 0 11.5-2.8 22.1-8.3 31.8-5.5 9.7-17.6 22.8-36.1 39.1s-31.4 28.8-38.5 37.3c-9.7 11.7-16.8 23.3-21.1 34.8-5.9 15.3-8.9 33.4-8.9 54.4 0 3.6 0.1 8.9 0.3 16.1l51.2 0.1zM478.2 683.3h60.9v61h-60.9z" fill="#FFFFFF" p-id="7918"></path></svg>