<?xml version="1.0" standalone="no"?><!DOCTYPE svg PUBLIC "-//W3C//DTD SVG 1.1//EN" "http://www.w3.org/Graphics/SVG/1.1/DTD/svg11.dtd"><svg t="1610092530246" class="icon" viewBox="0 0 1024 1024" version="1.1" xmlns="http://www.w3.org/2000/svg" p-id="6096" xmlns:xlink="http://www.w3.org/1999/xlink" width="64" height="64"><defs><style type="text/css"></style></defs><path d="M148.684982 0a49.100775 49.100775 0 0 0-35.839982 15.359992 54.374373 54.374373 0 0 0-15.359993 35.839982v921.59954a49.100775 49.100775 0 0 0 15.359993 35.839982 50.534375 50.534375 0 0 0 35.839982 15.359992h750.950024a49.100775 49.100775 0 0 0 35.839982-15.359992 50.534375 50.534375 0 0 0 15.359993-35.839982V290.150255L660.684726 0z m0 0" fill="#2F97FE" p-id="6097"></path><path d="M950.886181 290.150255h-238.950281a52.531174 52.531174 0 0 1-51.199974-51.199974V0l290.150255 290.150255z m0 0" fill="#97C6FF" p-id="6098"></path><path d="M287.232112 431.410984h77.823961l63.641569 236.031882 63.027168-236.031882h64.870368l63.027168 236.031882 63.641568-236.031882h77.823961l-107.519946 319.436641h-65.535967l-63.641568-233.523084-64.255968 233.523084H394.649659z m0 0" fill="#FFFFFF" p-id="6099"></path></svg>