<?xml version="1.0" standalone="no"?><!DOCTYPE svg PUBLIC "-//W3C//DTD SVG 1.1//EN" "http://www.w3.org/Graphics/SVG/1.1/DTD/svg11.dtd"><svg t="1641351577946" class="icon" viewBox="0 0 1024 1024" version="1.1" xmlns="http://www.w3.org/2000/svg" p-id="1476" xmlns:xlink="http://www.w3.org/1999/xlink" width="64" height="64"><defs><style type="text/css"></style></defs><path d="M431.16227451 156.6944309" p-id="1477"></path><path d="M309.51719867 969.49237515c-9.5738901 0-19.1432584-3.65049833-26.44877535-10.95450704-14.61254215-14.60651214-14.61706396-38.2940536-0.00904359-52.90659432l399.60289706-399.73553289c0.298431-0.29692275 0.89529152-0.88926295 0.89830507-2.05886827 0.00301502-0.86816078-0.31350317-1.62629466-0.93900122-2.25330098L283.10610445 102.2489613c-14.61254215-14.60651214-14.61857073-38.2940536-0.01205715-52.9065943 14.60500537-14.61254215 38.2940536-14.62007751 52.90659433-0.01205715l399.56672416 399.38585685c14.78888622 14.83862595 22.8721325 34.46871653 22.81485743 55.32418222-0.05576682 20.7680463-8.1917649 40.25043036-22.90679861 54.85543571L335.97351086 958.5303313C328.66950065 965.83886329 319.09259702 969.49237515 309.51719867 969.49237515z" p-id="1478"></path></svg>