<?xml version="1.0" standalone="no"?><!DOCTYPE svg PUBLIC "-//W3C//DTD SVG 1.1//EN" "http://www.w3.org/Graphics/SVG/1.1/DTD/svg11.dtd"><svg t="1640160065212" class="icon" viewBox="0 0 1024 1024" version="1.1" xmlns="http://www.w3.org/2000/svg" p-id="1219" xmlns:xlink="http://www.w3.org/1999/xlink" width="64" height="64"><defs><style type="text/css"></style></defs><path d="M505.25311661 444.28915654m-349.9383463 0a349.93834629 349.93834629 0 1 0 699.87669258 0 349.93834629 349.93834629 0 1 0-699.87669258 0Z" fill="#FFD6BB" p-id="1220"></path><path d="M805.26452627 638.14960303c3.14854541 1.79916856 6.74688339 2.69875371 10.34522139 2.69875283 7.64646768 0 15.29293535-4.04812969 19.34106504-11.24480566 49.02735146-89.95844355 60.27215713-193.41065391 31.93524756-291.46535684-58.92278028-202.85629013-270.77491582-319.80226729-472.28182911-260.87948701C238.97612305 123.58730498 128.77703018 263.47268428 120.68076992 426.74726006c-0.44979258 12.14438994 8.54605195 22.48961133 20.6904419 22.93940303 11.69459737 0.89958428 22.48961133-8.54605195 22.93940302-20.6904419C171.50729082 284.61291875 269.11220205 160.47026651 406.74862109 119.988967c178.56751113-52.17589776 366.58065849 51.2763126 418.30676279 230.743408 25.18836416 86.80989815 15.29293535 178.56751113-28.33690956 258.1807333-5.84729912 10.34522138-2.24896113 23.3891956 8.54605195 29.23649472z" fill="#E0620D" p-id="1221"></path><path d="M603.30782041 374.5713623c12.14438994 0 22.03981875-9.89542881 22.03981875-22.03981874s-9.89542881-22.03981875-22.03981875-22.03981788h-67.46883311l61.17174229-80.51280732c7.1966751-9.44563623 5.39750654-23.3891956-4.04813056-31.03566328-9.44563623-7.1966751-23.3891956-5.39750654-30.58587071 4.04812969L501.65477862 303.05439951 440.93282979 223.44117734c-7.1966751-9.44563623-21.14023447-11.24480566-30.58587159-4.04812968-9.44563623 7.1966751-11.24480566 21.14023447-4.04812968 31.0356624l61.17174228 80.51280733h-67.4688331c-12.14438994 0-22.03981875 9.89542881-22.03981875 22.03981875s9.89542881 22.03981875 22.03981875 22.03981875h79.61322217V431.24518232H400.00173769c-12.14438994 0-22.03981875 9.89542881-22.03981875 22.03981875s9.89542881 22.03981875 22.03981875 22.03981875h79.61322218V575.17869219c0 12.14438994 9.89542881 22.03981875 22.03981875 22.03981875s22.03981875-9.89542881 22.03981875-22.03981875V475.32481982h79.61322304c12.14438994 0 22.03981875-9.89542881 22.03981875-22.03981875S615.45221035 431.24518232 603.30782041 431.24518232h-79.61322304V374.5713623h79.61322304z" fill="#E0620D" p-id="1222"></path><path d="M906.91756807 740.25243653c-90.40823613-18.89127334-192.51106963-76.01488506-192.51106963-76.01488507-44.5294292-30.13607901-79.61322305-44.5294292-107.05054834-44.52943008-22.93940303 0-42.28046895 10.79501308-53.07548115 29.23649474-13.4937668 23.83898731-8.99584453 55.32444317 2.24896025 74.6655082 4.94771396 8.54605195 15.29293535 23.83898731 26.08794932 39.13192266-223.09694033-13.94355849-261.77907128-65.21987197-305.85870879-124.14265225-13.94355849-18.44148076-27.88711787-37.3327541-47.67797549-56.22402744-35.98337724-35.08379297-65.66966367-51.2763126-92.65719638-51.2763126-21.14023447 0-39.13192266 9.89542881-50.82652091 28.33690957-24.28877988 37.3327541-16.19251963 105.25137891-7.19667597 125.94182168 100.75345664 233.89195342 343.19146289 274.37325292 353.53668428 276.17242148 1.79916856 0.44979258 3.14854541 0.44979258 4.94771396 0.44979258h462.83619287c17.99168906 0 32.83483183-14.84314277 32.83483184-32.83483183v-156.52769239c0.44979258-15.74272793-10.34522138-29.23649385-25.63815586-32.38503925z m-17.54189649 177.21813427H438.23407607c-17.09210391-2.69875371-229.84382373-42.28046895-319.3524747-250.08447392-5.84729912-13.94355849-9.44563623-63.42070253 4.04812969-84.11114444 4.94771396-7.1966751 9.89542881-8.09626026 14.39335107-8.09626025 9.89542881 0 28.78670214 6.74688339 62.07132568 39.13192265 17.09210391 16.64231221 29.68628643 33.28462442 43.18005323 51.27631349 57.5734043 76.01488506 111.99826231 126.84140596 337.79395635 141.23475615h2.69875282c15.74272793 0 30.13607901-8.54605195 38.23233927-22.48961045 8.09626026-14.84314277 7.1966751-32.83483183-2.24896114-46.77839122-15.29293535-22.03981875-21.59002617-31.93524756-24.28877988-36.43316982-4.49792227-7.64646768-6.29709082-22.48961133-1.79916944-30.5858707 2.69875371-4.49792227 7.64646768-6.74688339 14.84314366-6.74688341 10.34522138 0 34.63400039 4.94771396 82.76176846 37.33275411 1.34937685 0.89958428 3.14854541 1.79916856 4.49792138 2.69875371 25.18836416 13.94355849 111.99826231 58.92278028 194.76003076 77.81405361l-0.4497917 135.83725049z" fill="#E0620D" p-id="1223"></path><path d="M695.06543252 703.8192667c25.18836416 13.94355849 111.99826231 58.92278028 194.76003076 77.81405361v135.83725049H438.23407607c-17.09210391-2.69875371-229.84382373-42.28046895-319.3524747-250.08447392-5.84729912-13.94355849-9.44563623-63.42070253 4.04812969-84.11114444 4.94771396-7.1966751 9.89542881-8.09626026 14.39335107-8.09626025 9.89542881 0 28.78670214 6.74688339 62.07132568 39.13192265 17.09210391 16.64231221 29.68628643 33.28462442 43.18005323 51.27631349 57.5734043 76.01488506 111.99826231 126.84140596 337.79395635 141.23475615h2.69875282c15.74272793 0 30.13607901-8.54605195 38.23233927-22.48961046 8.09626026-14.84314277 7.1966751-32.83483183-2.24896114-46.77839121-15.29293535-22.03981875-21.59002617-31.93524756-24.28877988-36.43316982-4.49792227-7.64646768-6.29709082-22.48961133-1.79916944-30.5858707 2.69875371-4.49792227 7.64646768-6.74688339 14.84314366-6.74688341 10.34522138 0 34.63400039 4.94771396 82.76176846 37.33275411 1.34937685 0.89958428 3.14854541 1.79916856 4.49792138 2.69875371" fill="#FFD3B6" p-id="1224"></path></svg>